# xmcd
#
# Track frame offsets: 
#        150
#        13449
#        24925
#        38088
#        53574
#        72909
#        88941
#        108697
#        121836
#        145812
#        158024
#        176438
#        192486
#        206360
#        224646
#        245233
#        264350
#        278863
#        287174
#        305268
#        309759
#        336543
#
# Disc length: 4789 seconds
#
# Revision: 0
# Processed by: cddbd v1.5.2PL0 Copyright (c) Steve Scherf et al.
# Submitted via: ExactAudioCopyFreeDBPlugin 1.0
#
DISCID=4a12b316
DTITLE=DJ Cellski - Au Temps Des Rois - Dj Cellski
DYEAR=2010
DGENRE=Hip-Hop
TTITLE0=Intro
TTITLE1=Royal Squad - C'est Tout Ce Que J'ai
TTITLE2=3ème Oeil - La Guerre
TTITLE3=Assassin ft. Naptron - Paris-New York Struggle
TTITLE4=NTM - Touche Pas A Ma Musique (That's My People Remix)
TTITLE5=La Rumeur - Pourquoi On Reste Calme?
TTITLE6=Les X-Men - Jeunes Coupables Et Libre
TTITLE7=Fabe - L'Impertinent Remix
TTITLE8=Shurik'n ft. Faf La Rage - La Garde Meurt Mais Ne Se Rend Pas
TTITLE9=La Cliqua - Prélude A L'élévation-Old School
TTITLE10=Gang du Lyonnais - Hip Hop Philosophie
TTITLE11=Mc. Jean Gab'1 - Street Life
TTITLE12=113 - L'age Du Meurtre
TTITLE13=Nostra , 3 ème Oeil , Menzo , Double Pact , Fresh - Le Même C
TTITLE13=ombat
TTITLE14=Code Noir - Crime Contre L'humanité
TTITLE15=Assassin - Démocratie Fasciste
TTITLE16=K'Ryhme le Roi ft. Freeman - La Pression (Remix)
TTITLE17=NTM - L'argent Pourrit Les Gens
TTITLE18=Booba - L'effort De Paix
TTITLE19=1984 - L'effort De Guerre
TTITLE20=DJ Cellski feat. Lord RC part.1 (Bonus Track)
TTITLE21=DJ Cellski feat. Lord RC part.2 (Bonus Track)
EXTD=
EXTT0=
EXTT1=
EXTT2=
EXTT3=
EXTT4=
EXTT5=
EXTT6=
EXTT7=
EXTT8=
EXTT9=
EXTT10=
EXTT11=
EXTT12=
EXTT13=
EXTT14=
EXTT15=
EXTT16=
EXTT17=
EXTT18=
EXTT19=
EXTT20=
EXTT21=
PLAYORDER=
